<svg width="655" height="178" viewBox="0 0 655 178" fill="none" xmlns="http://www.w3.org/2000/svg">
<path d="M0.215494 143V0.827604H29.9702V118.467H92.1398V143H0.215494ZM154.211 145.168C122.092 145.168 101.894 124.576 101.894 90.1903V89.9932C101.894 56.0019 122.584 35.213 154.112 35.213C185.739 35.213 206.528 55.8049 206.528 89.9932V90.1903C206.528 124.674 186.133 145.168 154.211 145.168ZM154.309 122.605C168.3 122.605 177.266 110.782 177.266 90.1903V89.9932C177.266 69.5985 168.103 57.7754 154.112 57.7754C140.22 57.7754 131.156 69.5985 131.156 89.9932V90.1903C131.156 110.881 140.122 122.605 154.309 122.605ZM269.683 145.168C237.465 145.168 217.563 124.182 217.563 90.0918V89.9932C217.563 56.199 237.761 35.213 269.387 35.213C298.058 35.213 316.286 52.8491 317.369 75.707V76.3967H290.669L290.472 75.51C288.698 65.4604 281.703 57.7754 269.781 57.7754C255.692 57.7754 246.825 69.894 246.825 90.0918V90.1903C246.825 110.881 255.692 122.605 269.88 122.605C281.407 122.605 288.6 115.511 290.57 104.871L290.669 103.984H317.468V104.575C316.088 127.63 297.861 145.168 269.683 145.168ZM379.835 145.168C347.715 145.168 327.517 124.576 327.517 90.1903V89.9932C327.517 56.0019 348.208 35.213 379.736 35.213C411.363 35.213 432.152 55.8049 432.152 89.9932V90.1903C432.152 124.674 411.757 145.168 379.835 145.168ZM379.933 122.605C393.924 122.605 402.889 110.782 402.889 90.1903V89.9932C402.889 69.5985 393.727 57.7754 379.736 57.7754C365.844 57.7754 356.78 69.5985 356.78 89.9932V90.1903C356.78 110.881 365.745 122.605 379.933 122.605Z" fill="white"/>
<path d="M449.492 143V0.827604H542.599V25.3605H479.247V63.4899H537.081V87.0375H479.247V143H449.492ZM572.748 177.78C567.132 177.78 561.417 177.09 558.067 176.499V155.119C560.136 155.513 563.486 156.104 567.723 156.104C576.294 156.104 581.024 153.641 583.585 146.448L584.866 143L547.525 37.3806H579.152L601.418 119.945H602.207L624.572 37.3806H654.918L618.66 144.872C610.384 169.799 596.197 177.78 572.748 177.78Z" fill="#FFB300"/>
</svg>
